<?xml version="1.0" standalone="no"?>
<!DOCTYPE svg PUBLIC "-//W3C//DTD SVG 20010904//EN"
 "http://www.w3.org/TR/2001/REC-SVG-20010904/DTD/svg10.dtd">
<svg version="1.0" xmlns="http://www.w3.org/2000/svg"
 width="650.000000pt" height="650.000000pt" viewBox="0 0 650.000000 650.000000"
 preserveAspectRatio="xMidYMid meet">
<metadata>
Created by potrace 1.11, written by Peter Selinger 2001-2013
</metadata>
<g transform="translate(0.000000,650.000000) scale(0.100000,-0.100000)"
fill="#000000" stroke="none">
<path d="M1868 5642 l-1378 -797 0 -1595 1 -1595 1373 -795 c756 -437 1377
-795 1380 -795 4 0 625 358 1381 795 l1375 795 0 1595 -1 1595 -1320 765
c-727 421 -1347 779 -1378 797 l-56 32 -1377 -797z m2685 -192 l1247 -722 -2
-1481 -3 -1481 -1250 -723 c-687 -398 -1262 -730 -1276 -738 -25 -14 -67 10
-1300 724 l-1274 739 0 1482 0 1482 675 390 c371 215 945 547 1275 738 l600
348 30 -18 c17 -10 591 -343 1278 -740z"/>
<path d="M1370 3331 l0 -701 363 0 c320 0 373 3 457 20 278 57 487 258 545
523 26 118 18 307 -18 407 -73 205 -244 353 -485 417 -95 26 -105 27 -479 31
l-383 4 0 -701z m712 288 c112 -24 192 -86 217 -168 16 -55 14 -170 -5 -224
-21 -62 -82 -121 -152 -148 -46 -18 -84 -23 -199 -27 l-143 -4 0 291 0 291
115 0 c62 0 138 -5 167 -11z"/>
<path d="M3780 3722 c0 -303 0 -311 24 -363 56 -128 59 -254 11 -434 -15 -56
-29 -142 -32 -197 l-6 -98 364 0 c322 0 375 3 459 20 278 57 487 258 545 523
26 118 18 307 -18 407 -73 205 -244 353 -485 417 -95 26 -105 27 -479 31
l-383 4 0 -310z m712 -103 c112 -24 192 -86 217 -168 16 -55 14 -170 -5 -224
-21 -62 -82 -121 -152 -148 -46 -18 -84 -23 -199 -27 l-143 -4 0 291 0 291
115 0 c62 0 138 -5 167 -11z"/>
<path d="M3185 3673 c-109 -14 -237 -88 -306 -174 -68 -85 -72 -97 -80 -214
-11 -154 -52 -277 -130 -392 -16 -23 -40 -82 -53 -131 -13 -50 -27 -100 -31
-111 -6 -21 -6 -21 151 -19 l157 3 42 155 c23 85 57 209 75 275 45 166 80 228
146 260 88 42 229 3 282 -78 25 -37 27 -48 26 -131 -2 -76 -11 -123 -56 -288
l-55 -198 163 0 c146 0 163 2 168 18 3 9 28 105 57 212 44 164 52 209 52 281
-1 146 -52 275 -149 374 -107 109 -309 178 -459 158z"/>
</g>
</svg>
