<?xml version="1.0" encoding="utf-8"?>
<!-- Generator: Adobe Illustrator 16.0.0, SVG Export Plug-In . SVG Version: 6.00 Build 0)  -->
<!DOCTYPE svg PUBLIC "-//W3C//DTD SVG 1.1//EN" "http://www.w3.org/Graphics/SVG/1.1/DTD/svg11.dtd">
<svg version="1.1" xmlns="http://www.w3.org/2000/svg" xmlns:xlink="http://www.w3.org/1999/xlink" x="0px" y="0px" width="720px"
	 height="720px" viewBox="0 0 720 720" enable-background="new 0 0 720 720" xml:space="preserve">
<g id="Layer_2">
	<polygon fill="#FFFFFF" stroke="#231F20" stroke-width="24" stroke-miterlimit="10" points="69.218,526.148 69.55,191.365 
		359.648,24.26 649.416,191.941 649.081,526.725 358.983,693.83 	"/>
</g>
<g id="Layer_1">
	<g>
		<path fill-rule="evenodd" clip-rule="evenodd" fill="#FEFEFE" d="M714.088,360.088c0,116.383-0.023,232.766,0.104,349.149
			c0.004,3.724-0.73,4.454-4.454,4.453c-232.767-0.114-465.533-0.114-698.298,0c-3.724,0.001-4.456-0.729-4.454-4.453
			C7.1,476.471,7.1,243.705,6.985,10.939c-0.002-3.723,0.729-4.456,4.453-4.454c232.766,0.114,465.533,0.114,698.299,0
			c3.722-0.002,4.459,0.728,4.454,4.453C714.064,127.321,714.088,243.705,714.088,360.088z M60.425,359.61c-0.015,0-0.029,0-0.043,0
			c0,56.013,0.048,112.024-0.096,168.036c-0.011,4.248,1.129,6.625,4.948,8.832c96.727,55.893,193.381,111.909,289.961,168.053
			c3.666,2.131,6.138,1.878,9.618-0.14c96.801-56.123,193.658-112.151,290.565-168.09c3.219-1.858,4.368-3.829,4.364-7.555
			c-0.09-112.386-0.074-224.772,0.054-337.159c0.004-3.719-1.139-5.715-4.325-7.559C558.326,127.845,461.225,71.583,364.19,15.207
			c-3.156-1.833-5.295-1.575-8.229,0.126c-96.775,56.1-193.581,112.148-290.456,168.076c-3.698,2.135-5.212,4.281-5.198,8.709
			C60.485,247.949,60.425,303.779,60.425,359.61z"/>
		<path fill-rule="evenodd" clip-rule="evenodd" fill="#010202" d="M60.425,359.61c0-55.831,0.061-111.662-0.117-167.492
			c-0.014-4.429,1.5-6.574,5.198-8.709c96.875-55.928,193.681-111.976,290.456-168.076c2.933-1.701,5.072-1.959,8.229-0.126
			c97.034,56.376,194.136,112.638,291.281,168.822c3.187,1.843,4.329,3.84,4.325,7.559c-0.128,112.387-0.144,224.773-0.054,337.159
			c0.004,3.726-1.146,5.696-4.364,7.555c-96.907,55.938-193.765,111.967-290.565,168.09c-3.48,2.018-5.952,2.271-9.618,0.14
			c-96.581-56.144-193.235-112.16-289.961-168.053c-3.819-2.207-4.959-4.584-4.948-8.832c0.144-56.012,0.096-112.023,0.096-168.036
			C60.396,359.61,60.41,359.61,60.425,359.61z M82.247,359.858c-0.043,0-0.087,0-0.13,0c0,52.018,0.037,104.035-0.078,156.052
			c-0.008,3.681,1.006,5.719,4.332,7.631c27.999,16.095,55.815,32.505,83.764,48.688c61.668,35.706,123.403,71.299,185.021,107.092
			c3.643,2.115,6.141,1.989,9.689-0.092c67.033-39.309,134.677-77.566,201.551-117.16c22.079-13.074,44.528-25.577,66.903-38.172
			c3.406-1.917,4.708-3.999,4.702-8.006c-0.122-103.853-0.112-207.706-0.017-311.56c0.003-3.671-0.977-5.723-4.328-7.618
			c-37.291-21.082-73.975-43.217-111.456-63.981c-16.977-9.405-33.586-19.504-50.28-29.432
			c-35.622-21.182-71.673-41.646-107.463-62.549c-3.247-1.897-5.555-1.762-8.76,0.096
			C266.135,92.771,176.519,144.603,86.848,196.341c-3.387,1.954-4.711,4.015-4.699,8.009
			C82.296,256.186,82.247,308.022,82.247,359.858z"/>
		<linearGradient id="SVGID_1_" gradientUnits="userSpaceOnUse" x1="360.019" y1="39.3896" x2="360.019" y2="680.8501">
			<stop  offset="0" style="stop-color:#2F80ED"/>
			<stop  offset="1" style="stop-color:#56CCF2"/>
		</linearGradient>
		<path fill-rule="evenodd" clip-rule="evenodd" fill="url(#SVGID_1_)" d="M82.149,204.35c-0.012-3.994,1.313-6.055,4.699-8.009
			c89.67-51.738,179.287-103.57,268.849-155.495c3.205-1.857,5.513-1.993,8.76-0.096c35.79,20.903,71.841,41.367,107.463,62.549
			c16.694,9.928,33.304,20.027,50.28,29.432c37.481,20.764,74.165,42.899,111.456,63.981c3.352,1.895,4.331,3.947,4.328,7.618
			c-0.096,103.854-0.105,207.707,0.017,311.56c0.006,4.007-1.296,6.089-4.702,8.006c-22.375,12.595-44.824,25.098-66.903,38.172
			c-66.874,39.594-134.518,77.852-201.551,117.16c-3.549,2.081-6.047,2.207-9.689,0.092
			c-61.618-35.793-123.354-71.386-185.021-107.092c-27.948-16.183-55.765-32.593-83.764-48.688c-3.326-1.912-4.34-3.95-4.332-7.631"
			/>
	</g>
	<path fill-rule="evenodd" clip-rule="evenodd" fill="#010202" d="M160.469,396.078c-3.031,0.038-4.042-0.805-4.037-3.94
		c0.069-48.2,0.051-96.399-0.054-144.599c-0.007-3.155,1.044-3.945,4.055-3.925c21.743,0.143,43.506-0.411,65.226,0.326
		c18.087,0.613,35.604,4.485,50.913,15.047c18.479,12.748,28.126,30.401,29.837,52.785c3.833,50.161-33.293,84.216-79.628,84.209
		 M203.063,318.871c0,9.233-0.027,18.465,0.025,27.698c0.009,1.643-0.729,3.949,2.249,3.925c11.551-0.093,23.199,0.97,34.387-3.189
		c13.158-4.892,19.511-15.109,18.997-30.755c-0.477-14.525-7.316-23.256-21.15-27.253c-9.929-2.869-20.097-1.932-30.2-2.297
		c-3.843-0.139-4.422,1.418-4.355,4.718C203.197,300.766,203.077,309.82,203.063,318.871z"/>
	<path fill-rule="evenodd" clip-rule="evenodd" fill="#010202" d="M422,396.146c-3.665,0.067-4.537-0.787-4.25-4.896
		c-0.287-12.642,3.552-24.605,6.529-36.704c3.527-14.333,2.141-28.01-5.162-40.913c-0.614-1.084-0.63-1.955-0.627-2.987
		c0.056-20.659,0.236-41.318,0.073-61.975c-0.033-4.096,1.065-5.141,5.122-5.097c19.935,0.216,39.881-0.296,59.805,0.208
		c21.59,0.546,42.485,4.232,59.86,18.563c22.199,18.308,27.974,42.25,24.196,69.778c-4.665,34.003-26.182,64.022-84.057,64.022
		C426.338,396.097,479.152,396.194,422,396.146z M465.196,318.908c0,9.233-0.024,18.466,0.022,27.698
		c0.009,1.657-0.693,3.925,2.288,3.895c11.368-0.116,22.83,0.942,33.871-3.032c13.529-4.871,19.997-15.075,19.472-30.956
		c-0.479-14.511-7.324-23.227-21.181-27.226c-9.75-2.814-19.731-1.963-29.659-2.28c-3.705-0.118-5.018,0.833-4.891,4.748
		C465.411,300.798,465.211,309.857,465.196,318.908z"/>
	<path fill-rule="evenodd" clip-rule="evenodd" fill="#010202" d="M371.946,395.98c2.085-11.039,5.591-21.119,7.745-31.594
		c1.311-6.371,4.159-12.618,4.725-19.243c1.356-15.899-8.325-26.57-24.262-26.958c-10.528-0.256-16.77,5.863-20.646,14.824
		c-4.913,11.359-6.945,23.602-10.355,35.423c-2.308,8.001-4.413,16.062-6.487,24.127c-0.553,2.153-1.2,3.508-3.859,3.473
		c-10.135-0.134-20.275-0.054-30.965-0.054c2.337-8.887,4.232-17.481,6.969-25.798c1.063-3.23,4.266-5.691,6.087-8.746
		c7.706-12.917,11.025-27.073,11.055-41.998c0.009-4.38,1.261-8.01,3.579-11.667c27.259-42.979,82.983-25.126,97.349,4.443
		c7.016,14.442,8.702,28.968,5.001,44.26c-2.855,11.789-6.373,23.418-9.258,35.2c-0.871,3.558-2.441,4.473-5.922,4.392
		C392.569,395.827,382.427,395.98,371.946,395.98z"/>
	<path display="none" fill-rule="evenodd" clip-rule="evenodd" fill="#010202" d="M235.498,424.208
		c11.856-10.711,23.863-9.759,31.855,2.487c4.485-8.229,11.552-10.82,20.293-9.497c7.476,1.131,12.166,5.483,12.954,15.553
		c0.663,8.467,0.055,17.026,0.187,25.544c0.073,4.696-3.337,2.594-5.369,2.868c-2.261,0.307-4.675,0.71-4.507-3.216
		c0.285-6.694,0.092-13.408,0.07-20.114c-0.026-7.81-3.41-12.027-9.86-12.345c-6.806-0.336-12.548,4.754-12.889,11.964
		c-0.316,6.69-0.373,13.423-0.015,20.108c0.25,4.69-2.717,3.585-5.236,3.667c-2.55,0.081-4.958,0.546-4.723-3.642
		c0.375-6.685,0.12-13.406,0.09-20.111c-0.033-7.59-3.256-11.581-9.604-11.977c-6.781-0.423-12.76,4.649-13.125,11.699
		c-0.346,6.688-0.438,13.428-0.013,20.105c0.286,4.484-2.231,3.95-5,3.953c-2.775,0.002-5.135,0.505-5.002-3.955
		c0.357-11.951,0.264-23.922,0.028-35.88c-0.073-3.682,0.695-5.08,4.677-4.899c3.514,0.159,6.153,0.209,5.209,4.796
		C235.375,422.011,235.498,422.759,235.498,424.208z"/>
	<path display="none" fill-rule="evenodd" clip-rule="evenodd" fill="#010202" d="M324.063,423.057
		c8.815-9.427,24.09-6.829,30.429,0.013c7.802,8.424,7.887,23.982-0.115,32.109c-8.195,8.322-20.555,8.024-30.786-1.441
		c0,6.884-0.269,13.094,0.096,19.268c0.238,4.026-1.291,4.75-4.902,4.652c-3.325-0.089-5.136-0.205-5.067-4.496
		c0.275-17.188,0.184-34.385,0.042-51.576c-0.028-3.38,0.206-5.267,4.475-5.082c3.804,0.165,6.321,0.5,5.4,5.133
		C323.58,421.911,323.807,422.243,324.063,423.057z M350.805,439.017c0.071-8.362-5.629-14.456-13.556-14.49
		c-7.718-0.033-13.527,5.858-13.65,13.843c-0.133,8.693,5.071,14.397,13.272,14.546C345.11,453.065,350.734,447.457,350.805,439.017
		z"/>
	<path display="none" fill-rule="evenodd" clip-rule="evenodd" fill="#010202" d="M397.885,455.781
		c-6.993,5.181-13.666,6.478-20.917,4.359c-5.893-1.721-10.022-7.201-9.829-12.862c0.196-5.794,3.952-10.374,9.957-12.11
		c5.499-1.59,11.147-0.955,16.744-1.157c1.293-0.048,3.142,0.895,3.823-0.934c0.584-1.568-0.006-3.2-0.915-4.627
		c-1.846-2.9-4.81-3.679-7.918-4.026c-4.075-0.456-7.888,0.69-11.595,2.247c-2.629,1.104-6.784-1.01-7.402-3.665
		c-0.294-1.261,0.595-1.516,1.283-1.842c8.452-4.001,17.105-6.143,26.377-2.888c7.18,2.521,9.672,8.111,9.82,15.084
		c0.158,7.425,0.19,14.86-0.073,22.279c-0.068,1.941,2.156,5.613-2.559,5.566C401.332,461.173,396.799,462.749,397.885,455.781z
		 M389.443,440.824c-2.868,0.096-5.719-0.111-8.579,0.702c-2.549,0.725-4.25,2.052-4.647,4.616c-0.436,2.803,0.975,4.85,3.312,6.268
		c4.823,2.925,14.052,0.851,17.097-3.802c1.365-2.086,1.909-4.466,0.947-6.667c-0.908-2.077-3.21-0.85-4.887-1.082
		C391.624,440.712,390.525,440.832,389.443,440.824z"/>
	<path display="none" fill-rule="evenodd" clip-rule="evenodd" fill="#010202" d="M520.65,461.229
		c-14.899-0.031-23.56-9.428-22.899-22.759c0.739-14.937,8.533-21.81,23.835-21.609c14.47,0.188,22.732,9.555,22.552,22.216
		C543.942,452.838,535.327,460.629,520.65,461.229z M534.626,439.072c0.005-8.599-5.413-14.156-13.734-14.089
		c-8.022,0.067-13.382,5.567-13.473,13.828c-0.093,8.396,5.524,14.464,13.473,14.558
		C528.817,453.463,534.619,447.423,534.626,439.072z"/>
	<path display="none" fill-rule="evenodd" clip-rule="evenodd" fill="#010202" d="M190.76,461.227
		c-14.489,0.114-23.492-10.603-22.777-22.841c0.896-15.321,11.904-22.008,24.47-21.584c14.69,0.496,21.859,9.839,22.183,22.269
		C214.952,451.207,204.101,462.106,190.76,461.227z M205.054,439.272c0.069-8.646-5.253-14.266-13.534-14.289
		c-8.048-0.022-13.521,5.434-13.671,13.63c-0.155,8.442,5.306,14.513,13.271,14.753
		C199.024,453.604,204.988,447.572,205.054,439.272z"/>
	<path display="none" fill-rule="evenodd" clip-rule="evenodd" fill="#010202" d="M431.542,423.206
		c6.986-6.831,14.688-7.853,22.822-5.037c6.887,2.385,9,8.643,9.407,15.06c0.529,8.304,0.015,16.669,0.179,25.003
		c0.093,4.694-3.265,2.701-5.316,2.932c-2.199,0.247-4.733,0.847-4.567-3.154c0.278-6.695,0.088-13.409,0.068-20.116
		c-0.024-7.896-3.345-12.003-9.885-12.276c-7.176-0.301-12.757,4.947-12.935,12.431c-0.154,6.521-0.314,13.063,0.051,19.568
		c0.269,4.783-2.832,3.463-5.287,3.611c-2.637,0.159-4.771,0.389-4.674-3.693c0.294-12.137,0.225-24.287,0.021-36.428
		c-0.058-3.468,0.767-4.845,4.439-4.536c3.081,0.259,6.472-0.528,5.443,4.488C431.211,421.535,431.408,422.072,431.542,423.206z"/>
	<path display="none" fill-rule="evenodd" clip-rule="evenodd" fill="#010202" d="M565.381,423.159
		c7.005-6.8,14.7-7.813,22.838-4.954c6.619,2.325,8.969,8.264,9.333,14.577c0.489,8.49,0.056,17.029,0.169,25.546
		c0.063,4.697-3.375,2.537-5.398,2.835c-2.296,0.339-4.641,0.634-4.474-3.25c0.289-6.693,0.095-13.408,0.071-20.112
		c-0.026-7.825-3.436-11.968-9.977-12.186c-6.943-0.232-12.587,4.881-12.824,11.978c-0.211,6.337-0.309,12.699,0.036,19.023
		c0.214,3.928-1.131,4.724-4.833,4.762c-3.931,0.04-5.26-0.79-5.14-5.019c0.329-11.59,0.221-23.197,0.039-34.794
		c-0.053-3.428,0.268-5.446,4.516-5.01c3.128,0.321,6.463-0.403,5.361,4.585C564.998,421.592,565.224,422.116,565.381,423.159z"/>
	<path display="none" fill-rule="evenodd" clip-rule="evenodd" fill="#010202" d="M163.545,453.044
		c-7.48,11.006-30.138,10.959-36.96-0.087c-5.135-8.314-5.654-18.68,0.612-28.565c3.309-5.22,14.176-9.061,21.682-7.431
		c4.346,0.944,8.782,1.684,12.307,4.979c1.332,1.245,2.873,2.121,0.968,3.619c-1.629,1.281-2.081,5.558-5.66,2.836
		c-3.704-2.816-7.919-3.305-12.343-3.045c-7.313,0.429-11.911,5.802-11.987,13.99c-0.07,7.6,4.479,12.87,11.66,13.47
		c3.252,0.271,6.472,0.101,9.417-1.47C158.963,448.291,158.946,448.259,163.545,453.044z"/>
	<path display="none" fill-rule="evenodd" clip-rule="evenodd" fill="#010202" d="M487.837,438.907
		c-0.003,6.314-0.235,12.643,0.077,18.941c0.217,4.376-2.615,3.38-4.929,3.347c-2.257-0.033-5.076,1.148-4.996-3.28
		c0.232-12.626,0.236-25.263-0.011-37.889c-0.085-4.37,2.634-3.371,4.942-3.338c2.252,0.031,5.202-1.165,4.995,3.276
		C487.621,426.266,487.842,432.593,487.837,438.907z"/>
	<g>
	</g>
	<g>
	</g>
	<g>
	</g>
	<g>
	</g>
	<g>
	</g>
	<g>
	</g>
</g>
</svg>
